<svg xmlns="http://www.w3.org/2000/svg" viewBox="0 0 100 100">
  <circle cx="50" cy="50" r="45" fill="none" stroke="#000080" stroke-width="4"/>
  <circle cx="50" cy="50" r="35" fill="none" stroke="#000080" stroke-width="1"/>
  <circle cx="50" cy="50" r="8" fill="#000080"/>
  <!-- 24 spokes -->
  <g stroke="#000080" stroke-width="2">
    <line x1="50" y1="50" x2="50" y2="10"/>
    <line x1="50" y1="50" x2="50" y2="90"/>
    <line x1="50" y1="50" x2="10" y2="50"/>
    <line x1="50" y1="50" x2="90" y2="50"/>
    <line x1="50" y1="50" x2="21.7" y2="21.7"/>
    <line x1="50" y1="50" x2="78.3" y2="78.3"/>
    <line x1="50" y1="50" x2="21.7" y2="78.3"/>
    <line x1="50" y1="50" x2="78.3" y2="21.7"/>
    
    <line x1="50" y1="50" x2="39.6" y2="11.4"/>
    <line x1="50" y1="50" x2="60.4" y2="88.6"/>
    <line x1="50" y1="50" x2="29.3" y2="15.8"/>
    <line x1="50" y1="50" x2="70.7" y2="84.2"/>
    
    <line x1="50" y1="50" x2="60.4" y2="11.4"/>
    <line x1="50" y1="50" x2="39.6" y2="88.6"/>
    <line x1="50" y1="50" x2="70.7" y2="15.8"/>
    <line x1="50" y1="50" x2="29.3" y2="84.2"/>
    
    <line x1="50" y1="50" x2="11.4" y2="39.6"/>
    <line x1="50" y1="50" x2="88.6" y2="60.4"/>
    <line x1="50" y1="50" x2="15.8" y2="29.3"/>
    <line x1="50" y1="50" x2="84.2" y2="70.7"/>
    
    <line x1="50" y1="50" x2="11.4" y2="60.4"/>
    <line x1="50" y1="50" x2="88.6" y2="39.6"/>
    <line x1="50" y1="50" x2="15.8" y2="70.7"/>
    <line x1="50" y1="50" x2="84.2" y2="29.3"/>
  </g>
  <!-- Small circles on the rim -->
  <g fill="#000080">
    <circle cx="50" cy="7" r="2.5"/><circle cx="50" cy="93" r="2.5"/>
    <circle cx="7" cy="50" r="2.5"/><circle cx="93" cy="50" r="2.5"/>
    <circle cx="19.6" cy="19.6" r="2.5"/><circle cx="80.4" cy="80.4" r="2.5"/>
    <circle cx="19.6" cy="80.4" r="2.5"/><circle cx="80.4" cy="19.6" r="2.5"/>
    
    <circle cx="38.9" cy="8.5" r="2.5"/><circle cx="61.1" cy="91.5" r="2.5"/>
    <circle cx="27.9" cy="13.2" r="2.5"/><circle cx="72.1" cy="86.8" r="2.5"/>
    
    <circle cx="61.1" cy="8.5" r="2.5"/><circle cx="38.9" cy="91.5" r="2.5"/>
    <circle cx="72.1" cy="13.2" r="2.5"/><circle cx="27.9" cy="86.8" r="2.5"/>
    
    <circle cx="8.5" cy="38.9" r="2.5"/><circle cx="91.5" cy="61.1" r="2.5"/>
    <circle cx="13.2" cy="27.9" r="2.5"/><circle cx="86.8" cy="72.1" r="2.5"/>
    
    <circle cx="8.5" cy="61.1" r="2.5"/><circle cx="91.5" cy="38.9" r="2.5"/>
    <circle cx="13.2" cy="72.1" r="2.5"/><circle cx="86.8" cy="27.9" r="2.5"/>
  </g>
</svg>
